<?xml version="1.0" encoding="utf-8"?>
<!-- Generator: Adobe Illustrator 16.0.4, SVG Export Plug-In . SVG Version: 6.00 Build 0)  -->
<!DOCTYPE svg PUBLIC "-//W3C//DTD SVG 1.1//EN" "http://www.w3.org/Graphics/SVG/1.1/DTD/svg11.dtd">
<svg version="1.1" id="Layer_1" xmlns="http://www.w3.org/2000/svg" xmlns:xlink="http://www.w3.org/1999/xlink" x="0px" y="0px"
	 width="93.793px" height="93.795px" viewBox="0 0 93.793 93.795" enable-background="new 0 0 93.793 93.795" xml:space="preserve">
<g>
	<path fill="#FFFFFF" d="M46.897,0C21.038,0,0,21.039,0,46.898c0,25.858,21.038,46.896,46.897,46.896
		c25.858,0,46.896-21.038,46.896-46.896C93.793,21.039,72.756,0,46.897,0z M46.897,89.49c-23.486,0-42.594-19.106-42.594-42.592
		S23.41,4.304,46.897,4.304c23.485,0,42.591,19.107,42.591,42.594C89.488,70.384,70.383,89.49,46.897,89.49z"/>
	<path fill="#FFFFFF" d="M83.193,44.745l-36.291,0.377L10.59,44.745c-1.187,0-2.152,0.966-2.152,2.153s0.966,2.152,2.16,2.152
		l36.291-0.378l36.304,0.378h0.009c1.188,0,2.151-0.966,2.151-2.152C85.354,45.711,84.389,44.745,83.193,44.745z"/>
	<path fill="#FFFFFF" d="M44.744,10.6l0.377,36.291l-0.377,36.312c0,1.188,0.965,2.151,2.152,2.151s2.152-0.965,2.152-2.16
		l-0.377-36.291L49.049,10.6v-0.008c0-1.186-0.965-2.152-2.152-2.152S44.744,9.406,44.744,10.6z"/>
	<path fill="#FFFFFF" d="M71.041,19.709L45.646,45.637L19.702,71.048c-0.84,0.839-0.84,2.204,0,3.043
		c0.84,0.84,2.204,0.84,3.05-0.005l25.395-25.929l25.938-25.404l0.006-0.006c0.839-0.838,0.841-2.204,0-3.044
		C73.25,18.864,71.885,18.865,71.041,19.709z"/>
	<path fill="#FFFFFF" d="M74.084,71.041L48.156,45.646L22.745,19.702c-0.839-0.84-2.204-0.84-3.043,0
		c-0.84,0.84-0.84,2.204,0.005,3.05l25.929,25.396L71.04,74.084l0.006,0.006c0.838,0.838,2.204,0.841,3.044,0
		C74.93,73.25,74.928,71.885,74.084,71.041z"/>
</g>
</svg>
