<?xml version="1.0" encoding="utf-8"?>
<!-- Generator: Adobe Illustrator 16.0.4, SVG Export Plug-In . SVG Version: 6.00 Build 0)  -->
<!DOCTYPE svg PUBLIC "-//W3C//DTD SVG 1.1//EN" "http://www.w3.org/Graphics/SVG/1.1/DTD/svg11.dtd">
<svg version="1.1" id="Layer_1" xmlns="http://www.w3.org/2000/svg" xmlns:xlink="http://www.w3.org/1999/xlink" x="0px" y="0px"
	 width="400px" height="94.667px" viewBox="0 0 400 94.667" enable-background="new 0 0 400 94.667" xml:space="preserve">
<g>
	<g>
		<path d="M258.12,42.365c0-13.267,0-26.529,0-39.797c0-0.388-0.003-0.771,0.016-1.153c0.024-0.458,0.341-0.719,0.732-0.768
			c0.425-0.054,0.753,0.267,0.858,0.639c0.108,0.404,0.082,0.854,0.082,1.285c0.006,10.14,0.022,20.285-0.019,30.427
			c-0.005,1.301,0.19,1.398,1.362,0.806c7.654-3.879,15.687-5.18,24.152-3.351c6.285,1.355,9.842,5.14,10.887,11.619
			c0.455,2.807,0.617,5.628,0.613,8.466c-0.007,10.574,0,21.153-0.004,31.728c0,0.337,0.012,0.674-0.01,1.011
			c-0.027,0.495-0.293,0.816-0.799,0.84c-0.522,0.024-0.792-0.334-0.863-0.789c-0.064-0.422-0.029-0.861-0.029-1.295
			c-0.008-11.49-0.008-22.978-0.033-34.464c-0.006-2.408-0.332-4.779-0.938-7.117c-1.316-5.067-4.761-7.664-9.734-8.54
			c-7.98-1.411-15.554-0.199-22.776,3.448c-1.273,0.644-1.86,1.35-1.853,2.923c0.077,14.564,0.047,29.13,0.047,43.693
			c0,0.095,0.006,0.193-0.002,0.288c-0.045,0.729,0.236,1.786-0.854,1.813c-1.196,0.031-0.824-1.08-0.824-1.763
			C258.115,68.998,258.12,55.685,258.12,42.365z"/>
		<path d="M220.041,50.353c0,4.954-0.02,9.906,0.009,14.854c0.015,2.985,0.265,5.945,1.22,8.805
			c1.883,5.63,6.073,8.726,12.012,9.055c3.5,0.193,6.904,0.062,10.084-1.625c0.529-0.283,1.076-0.283,1.361,0.311
			c0.319,0.654-0.235,0.967-0.695,1.203c-1.493,0.785-3.084,1.308-4.745,1.596c-3.863,0.671-7.688,0.391-11.36-0.902
			c-5.556-1.953-7.97-6.422-8.988-11.869c-0.479-2.562-0.574-5.15-0.574-7.75c0.004-10.095-0.03-20.189,0.037-30.283
			c0.011-1.438-0.426-1.759-1.774-1.703c-2.543,0.113-5.094,0.041-7.642,0.035c-0.67-0.003-1.516,0.062-1.496-0.895
			c0.019-0.886,0.837-0.751,1.441-0.754c2.691-0.008,5.387-0.051,8.075,0.019c1.068,0.029,1.397-0.264,1.386-1.363
			c-0.061-4.903-0.025-9.806-0.025-14.708c0-0.337-0.012-0.674,0.012-1.008c0.04-0.544,0.326-0.97,0.885-0.924
			c0.518,0.043,0.829,0.431,0.781,1.016c-0.021,0.286-0.002,0.576-0.002,0.865c0,4.905,0.041,9.809-0.029,14.711
			c-0.019,1.185,0.36,1.425,1.465,1.414c5.48-0.054,10.961-0.027,16.439-0.024c0.432,0,0.863,0.016,1.294,0.054
			c0.407,0.032,0.588,0.358,0.623,0.689c0.033,0.351-0.165,0.687-0.524,0.763c-0.463,0.1-0.947,0.137-1.425,0.137
			c-5.528,0.008-11.056,0.03-16.584-0.016c-1.005-0.008-1.292,0.272-1.282,1.288C220.064,39.009,220.039,44.68,220.041,50.353z"/>
		<path d="M373.877,45.038c1.25-4.057,3.065-7.68,6.205-10.455c5.084-4.491,10.995-5.816,17.557-4.28
			c0.714,0.167,1.953,0.277,1.685,1.35c-0.284,1.131-1.312,0.506-2.054,0.312c-9.746-2.53-18.64,2.885-21.77,13.173
			c-1.513,4.973-1.909,10.07-1.931,15.215c-0.03,7.255-0.01,14.512-0.01,21.766c0,0.338,0.006,0.672-0.007,1.01
			c-0.021,0.529-0.139,0.973-0.732,0.986c-0.573,0.01-0.763-0.395-0.814-0.931c-0.031-0.285-0.012-0.576-0.012-0.865
			c0-16.67,0-33.343,0-50.012c0-0.243-0.002-0.482,0.002-0.725c0.01-0.579,0.165-1.075,0.854-1.094
			c0.722-0.016,0.702,0.493,0.706,1.072c0.009,0.765,0.006,1.536,0.003,2.303c-0.006,3.365-0.015,6.727-0.01,10.092
			C373.551,44.265,373.417,44.615,373.877,45.038z"/>
		<path d="M144.787,82.414c-1.79-0.308-2.872-1.455-3.458-3.096c-0.493-1.371-0.523-2.82-0.523-4.268
			c-0.001-9.803,0.028-19.608-0.012-29.416c-0.031-8.284-5.374-14.463-13.565-15.662c-6.713-0.983-13.057,0.471-19.174,3.181
			c-0.392,0.172-0.769,0.396-1.121,0.644c-0.368,0.264-0.664,0.62-0.381,1.096c0.257,0.431,0.634,0.536,1.103,0.259
			c0.326-0.197,0.692-0.323,1.033-0.496c5.14-2.597,10.629-3.542,16.322-3.249c6.802,0.351,11.813,4.222,13.611,10.286
			c0.501,1.684,0.522,3.408,0.502,5.137c-0.028,2.543-0.06,5.086-0.088,7.625c-2.555,0.528-5.137,0.162-7.707,0.219
			c-4.702,0.104-9.426-0.239-14.086,0.652c-4.123,0.787-7.996,2.129-10.794,5.498c-4.579,5.514-4.429,16.955,4.676,21.61
			c5.841,2.987,11.911,2.938,18.087,1.472c3.76-0.893,7.007-2.783,9.972-5.625c0.186,0.682,0.286,1.149,0.442,1.6
			c0.81,2.334,2.469,3.707,4.86,4.209c0.587,0.123,1.252,0.115,1.38-0.637C145.994,82.712,145.414,82.521,144.787,82.414z
			 M138.23,77.037c-3.521,3.701-7.97,5.398-12.912,5.922c-4.635,0.49-9.187,0.25-13.454-1.988
			c-8.861-4.649-7.849-16.16-3.036-20.233c2.943-2.491,6.44-3.548,10.148-3.979c6.366-0.739,12.767-0.209,19.148-0.379
			c0.858-0.021,1.026,0.289,1.016,1.07c-0.041,2.979-0.016,5.959-0.016,8.938c-0.001,2.787-0.037,5.572,0.02,8.357
			C139.162,75.687,138.871,76.363,138.23,77.037z"/>
		<path d="M200.388,78.949c-0.313-0.783-0.913-0.463-1.446-0.215c-4.504,2.09-9.193,3.6-14.128,4.199
			c-4.649,0.568-9.235,0.289-13.416-2.088c-7.865-4.463-10.901-11.725-11.612-20.317c-0.1-1.198,0.344-1.428,1.438-1.437
			c5.188-0.051,10.381-0.08,15.555-0.6c5.021-0.505,10.008-1.164,14.707-3.14c3.508-1.474,6.503-3.531,7.821-7.333
			c1.735-5.005,0.175-10.261-4.323-13.909c-5.61-4.55-12.105-5.261-18.929-3.812c-6.144,1.304-10.8,4.787-13.962,10.221
			c-3.032,5.205-4.083,10.9-4.06,17.613c-0.133,2.963,0.389,6.623,1.517,10.16c2.03,6.367,5.64,11.496,11.841,14.488
			c3,1.449,6.188,2.117,9.473,2.079c6.576-0.069,12.784-1.748,18.669-4.657C200.057,79.946,200.682,79.685,200.388,78.949z
			 M166.007,37.877c4.802-5.353,11.055-6.991,18.002-6.401c4.125,0.353,7.842,1.781,10.813,4.776
			c5.817,5.865,4.188,14.05-3.397,17.341c-4.324,1.871-8.899,2.64-13.526,3.13c-3.963,0.421-7.942,0.688-11.93,0.849
			c-1.778,0-3.555-0.005-5.333,0.004c-0.531,0.006-0.928-0.035-0.917-0.75C159.831,49.849,161.191,43.249,166.007,37.877z"/>
		<path d="M354.717,78.88c-0.271-0.572-0.736-0.48-1.214-0.221c-0.251,0.139-0.526,0.234-0.789,0.352
			c-5.259,2.316-10.695,3.941-16.478,4.135c-5.176,0.176-9.88-1.166-13.852-4.602c-5.588-4.836-7.795-11.195-8.224-18.361
			c-0.062-1.045,0.487-1.039,1.224-1.049c6.291-0.096,12.584-0.146,18.841-0.959c4.579-0.59,9.092-1.448,13.263-3.545
			c6.377-3.209,8.713-9.874,5.512-15.982c-2.402-4.59-6.426-7.099-11.351-8.303c-10.332-2.53-20.494,1.719-25.499,10.732
			c-2.794,5.03-3.747,10.523-3.781,16.213c-0.017,4.994,0.73,9.396,2.527,13.619c3.188,7.491,8.582,12.352,16.817,13.647
			c6.054,0.952,11.817-0.421,17.495-2.341c1.722-0.582,3.398-1.291,5.003-2.158C354.696,79.792,354.964,79.408,354.717,78.88z
			 M320.132,38.163c4.751-5.466,11.017-7.217,18.034-6.67c4.184,0.323,7.95,1.724,10.979,4.741c5.87,5.846,4.3,14.033-3.292,17.354
			c-4.314,1.888-8.897,2.652-13.522,3.146c-3.914,0.42-7.848,0.687-11.787,0.854c-1.826,0-3.651-0.008-5.479,0.006
			c-0.583,0.005-1.023-0.024-1.004-0.819C314.24,49.962,315.514,43.473,320.132,38.163z"/>
	</g>
	<g>
		<g>
			<path d="M45.009,93.5C20.544,93.5,0.64,73.598,0.64,49.132c0-24.464,19.904-44.369,44.369-44.369
				c24.463,0,44.366,19.905,44.366,44.369C89.375,73.598,69.472,93.5,45.009,93.5z M45.009,7.538
				c-22.937,0-41.597,18.661-41.597,41.594c0,22.938,18.66,41.6,41.597,41.6c22.933,0,41.594-18.661,41.594-41.6
				C86.603,26.199,67.942,7.538,45.009,7.538z"/>
		</g>
		<g>
			<path d="M79.883,50.52l-34.874-0.089L10.132,50.52c-0.765,0-1.388-0.62-1.388-1.388c0-0.764,0.623-1.385,1.388-1.385
				l34.875,0.088l34.875-0.088c0.767,0,1.387,0.622,1.387,1.385C81.27,49.9,80.649,50.52,79.883,50.52z"/>
		</g>
		<g>
			<path d="M46.394,14.259l-0.089,34.874l0.089,34.877c0,0.767-0.62,1.389-1.387,1.389c-0.767,0-1.385-0.622-1.385-1.389
				l0.089-34.875l-0.089-34.875c0-0.768,0.618-1.387,1.385-1.387C45.774,12.872,46.394,13.492,46.394,14.259z"/>
		</g>
		<g>
			<path d="M70.648,25.453L45.923,50.052L21.327,74.776c-0.54,0.541-1.418,0.541-1.96,0c-0.542-0.542-0.542-1.42,0-1.964
				l24.725-24.594l24.597-24.724c0.54-0.544,1.417-0.544,1.959,0C71.189,24.036,71.189,24.911,70.648,25.453z"/>
		</g>
		<g>
			<path d="M21.328,23.494l24.595,24.724l24.725,24.594c0.542,0.544,0.542,1.422,0,1.964c-0.54,0.538-1.418,0.538-1.959,0
				L44.091,50.05L19.367,25.453c-0.542-0.542-0.542-1.417,0-1.958C19.908,22.95,20.787,22.95,21.328,23.494z"/>
		</g>
	</g>
</g>
</svg>
